<svg id="svg" version="1.1" xmlns="http://www.w3.org/2000/svg" xmlns:xlink="http://www.w3.org/1999/xlink" width="400" height="400" viewBox="0, 0, 400,400"><g id="svgg"><path id="path0" d="M197.912 89.160 C 198.074 89.423,197.110 89.606,195.805 89.559 C 195.539 89.549,195.417 89.697,195.535 89.888 C 195.727 90.198,194.857 90.417,194.014 90.271 C 193.837 90.240,193.803 90.395,193.939 90.615 C 194.153 90.961,193.707 91.168,192.934 91.083 C 192.807 91.069,191.840 91.971,190.785 93.087 L 188.867 95.117 191.016 93.166 C 192.817 91.530,192.724 91.672,190.440 94.045 C 187.807 96.780,186.594 97.802,188.123 95.996 L 188.867 95.117 187.997 95.853 C 187.519 96.258,187.206 96.716,187.302 96.870 C 187.519 97.222,185.761 98.913,185.476 98.627 C 185.361 98.512,185.023 98.730,184.724 99.112 C 184.220 99.754,184.237 99.763,184.961 99.244 C 185.391 98.935,183.557 100.903,180.886 103.617 C 178.215 106.332,175.882 108.461,175.701 108.349 C 175.519 108.237,175.420 108.378,175.479 108.662 C 175.538 108.949,175.324 109.122,175.000 109.049 C 174.678 108.978,174.531 109.037,174.675 109.180 C 175.049 109.554,173.765 110.945,173.307 110.662 C 173.098 110.532,173.037 110.606,173.173 110.825 C 173.308 111.044,173.031 111.555,172.556 111.960 C 171.704 112.686,171.700 112.686,172.272 111.914 C 172.806 111.194,172.799 111.174,172.180 111.659 C 171.811 111.948,171.548 112.300,171.595 112.441 C 171.713 112.800,124.976 159.225,124.738 158.984 C 124.631 158.877,124.590 158.965,124.645 159.180 C 124.803 159.791,123.752 161.718,123.385 161.491 C 123.204 161.379,123.172 161.589,123.313 161.958 C 123.486 162.410,123.423 162.537,123.118 162.348 C 122.822 162.166,122.746 162.279,122.898 162.675 C 123.026 163.008,122.952 163.281,122.735 163.281 C 122.517 163.281,122.438 163.660,122.559 164.124 C 122.685 164.607,122.621 164.868,122.409 164.737 C 122.192 164.603,122.096 165.105,122.177 165.945 C 122.263 166.834,122.187 167.198,121.977 166.899 C 121.769 166.601,121.646 167.225,121.659 168.520 C 121.671 169.728,121.816 170.434,122.000 170.176 C 122.184 169.918,122.256 170.258,122.169 170.975 C 122.085 171.662,122.160 172.135,122.336 172.027 C 122.622 171.850,122.810 172.773,122.762 174.117 C 122.752 174.383,122.930 174.486,123.157 174.346 C 123.417 174.185,123.475 174.339,123.313 174.761 C 123.140 175.213,123.203 175.340,123.508 175.152 C 123.813 174.963,123.877 175.090,123.704 175.542 C 123.551 175.940,123.603 176.116,123.833 175.974 C 124.187 175.755,124.392 176.292,124.255 177.080 C 124.225 177.257,124.336 177.340,124.502 177.265 C 124.912 177.081,128.076 180.387,127.777 180.687 C 127.646 180.818,127.715 180.889,127.930 180.846 C 128.755 180.679,129.333 180.876,129.104 181.246 C 128.963 181.475,129.138 181.527,129.536 181.374 C 129.988 181.201,130.115 181.265,129.927 181.570 C 129.738 181.875,129.866 181.938,130.317 181.765 C 130.769 181.592,130.896 181.655,130.708 181.960 C 130.525 182.256,130.638 182.332,131.034 182.180 C 131.368 182.052,131.641 182.126,131.641 182.344 C 131.641 182.561,132.020 182.640,132.483 182.519 C 132.981 182.389,133.229 182.455,133.090 182.680 C 132.948 182.910,133.334 182.991,134.060 182.885 C 134.724 182.787,135.171 182.863,135.054 183.053 C 134.931 183.251,141.125 183.398,149.549 183.398 L 164.258 183.398 164.258 211.584 C 164.258 227.817,164.404 239.679,164.603 239.556 C 164.793 239.438,164.868 239.894,164.769 240.570 C 164.669 241.245,164.753 241.797,164.953 241.797 C 165.154 241.797,165.217 242.061,165.093 242.383 C 164.969 242.705,165.057 242.969,165.288 242.969 C 165.520 242.969,165.607 243.232,165.484 243.555 C 165.360 243.877,165.408 244.141,165.590 244.141 C 165.967 244.141,167.036 246.512,166.880 247.002 C 166.824 247.179,166.958 247.212,167.178 247.076 C 167.398 246.940,167.600 247.015,167.627 247.243 C 167.654 247.470,167.698 247.876,167.725 248.145 C 167.751 248.413,167.949 248.635,168.164 248.639 C 168.695 248.647,170.911 250.896,170.785 251.299 C 170.729 251.476,170.853 251.516,171.060 251.388 C 171.267 251.260,171.611 251.467,171.824 251.847 C 172.036 252.228,172.311 252.495,172.433 252.441 C 172.975 252.204,173.463 252.378,173.245 252.730 C 173.103 252.959,173.278 253.012,173.677 252.859 C 174.098 252.697,174.252 252.755,174.092 253.015 C 173.951 253.242,174.054 253.420,174.321 253.410 C 175.511 253.367,176.202 253.541,176.019 253.838 C 175.910 254.015,176.119 254.159,176.484 254.159 C 178.468 254.156,179.713 254.331,179.553 254.590 C 179.453 254.751,188.830 254.883,200.391 254.883 C 211.951 254.883,221.207 254.740,220.959 254.565 C 220.704 254.385,221.134 254.307,221.945 254.385 C 222.785 254.467,223.288 254.370,223.154 254.154 C 223.022 253.941,223.284 253.877,223.768 254.004 C 224.308 254.145,224.518 254.075,224.354 253.808 C 224.189 253.542,224.399 253.472,224.939 253.613 C 225.485 253.756,225.691 253.685,225.522 253.413 C 225.356 253.144,225.505 253.085,225.933 253.249 C 226.384 253.423,226.512 253.359,226.323 253.054 C 226.135 252.749,226.262 252.685,226.714 252.859 C 227.083 253.000,227.293 252.968,227.181 252.787 C 226.954 252.420,228.881 251.369,229.492 251.527 C 229.707 251.582,229.774 251.519,229.642 251.387 C 229.360 251.105,232.087 248.230,232.520 248.354 C 232.681 248.400,232.792 248.306,232.766 248.145 C 232.642 247.359,232.853 246.854,233.213 247.076 C 233.433 247.212,233.574 247.179,233.526 247.002 C 233.368 246.419,234.034 244.906,234.359 245.107 C 234.534 245.216,234.670 245.086,234.660 244.820 C 234.616 243.596,234.795 242.941,235.120 243.142 C 235.315 243.262,235.382 243.009,235.270 242.579 C 235.157 242.149,235.237 241.797,235.447 241.797 C 235.657 241.797,235.740 241.331,235.631 240.762 C 235.523 240.193,235.591 239.825,235.783 239.944 C 235.988 240.070,236.133 228.380,236.133 211.779 L 236.133 183.398 250.646 183.398 C 258.958 183.398,265.069 183.251,264.946 183.053 C 264.829 182.863,265.285 182.789,265.960 182.888 C 266.635 182.987,267.188 182.902,267.188 182.699 C 267.188 182.497,267.539 182.423,267.969 182.535 C 268.467 182.665,268.657 182.587,268.491 182.319 C 268.327 182.053,268.470 181.990,268.881 182.148 C 269.239 182.285,269.531 182.239,269.531 182.045 C 269.531 181.672,271.067 181.035,271.611 181.182 C 271.788 181.230,271.822 181.089,271.686 180.869 C 271.464 180.510,271.969 180.298,272.754 180.422 C 272.915 180.448,273.006 180.337,272.956 180.176 C 272.831 179.776,275.115 177.527,275.517 177.653 C 275.694 177.708,275.748 177.607,275.637 177.427 C 275.357 176.973,276.750 174.927,277.101 175.278 C 277.257 175.434,277.258 175.231,277.103 174.826 C 276.942 174.407,276.975 174.186,277.180 174.312 C 277.377 174.435,277.567 174.073,277.601 173.510 C 277.635 172.946,277.829 172.429,278.032 172.362 C 278.236 172.294,278.314 171.779,278.207 171.217 C 278.100 170.656,278.169 170.294,278.361 170.413 C 278.554 170.532,278.711 169.592,278.711 168.323 C 278.711 167.055,278.559 166.017,278.372 166.017 C 278.186 166.016,278.118 165.576,278.221 165.039 C 278.323 164.502,278.300 164.062,278.168 164.061 C 277.861 164.059,276.354 160.454,276.484 160.030 C 276.538 159.852,276.402 159.819,276.182 159.955 C 275.961 160.091,275.759 160.016,275.732 159.789 C 275.706 159.561,275.662 159.199,275.635 158.984 C 275.608 158.770,275.438 158.611,275.256 158.632 C 274.784 158.686,272.651 156.574,272.852 156.250 C 272.944 156.101,272.454 155.469,271.763 154.845 L 270.508 153.711 271.668 155.078 C 272.306 155.830,263.824 147.481,252.820 136.525 C 241.816 125.569,232.813 116.517,232.813 116.409 C 232.813 116.302,241.294 124.651,251.660 134.962 L 270.508 153.711 251.783 134.887 C 241.485 124.534,232.926 116.097,232.763 116.137 C 232.341 116.242,207.135 91.042,207.399 90.778 C 207.519 90.658,207.441 90.610,207.227 90.672 C 206.659 90.834,203.918 89.750,204.111 89.439 C 204.200 89.294,203.813 89.263,203.250 89.371 C 202.688 89.478,202.324 89.409,202.442 89.217 C 202.560 89.025,201.548 88.867,200.194 88.867 C 198.839 88.867,197.812 88.999,197.912 89.160 M201.367 101.752 C 201.582 101.755,201.766 102.021,201.776 102.344 C 201.785 102.666,202.018 102.881,202.293 102.822 C 202.568 102.763,202.699 102.866,202.585 103.051 C 202.378 103.385,205.566 106.761,206.014 106.682 C 206.144 106.659,206.206 106.710,206.152 106.795 C 205.962 107.095,207.531 108.573,207.838 108.383 C 208.009 108.277,208.276 108.396,208.432 108.648 C 208.623 108.957,208.536 109.004,208.166 108.792 C 207.739 108.549,207.719 108.589,208.073 108.972 C 208.323 109.244,208.938 109.679,209.440 109.940 C 209.941 110.202,210.308 110.621,210.254 110.872 C 210.200 111.123,210.310 111.284,210.497 111.230 C 210.962 111.097,265.604 166.149,266.257 167.409 C 266.716 168.293,266.688 168.509,266.020 169.226 C 265.603 169.674,265.370 170.217,265.504 170.432 C 265.637 170.648,265.555 170.706,265.322 170.562 C 265.089 170.418,264.787 170.478,264.652 170.697 C 264.492 170.956,258.251 171.094,246.634 171.094 C 233.738 171.094,228.933 171.212,229.127 171.526 C 229.307 171.817,229.123 171.873,228.565 171.695 C 228.024 171.524,227.734 171.600,227.734 171.914 C 227.734 172.179,227.639 172.300,227.522 172.183 C 227.299 171.961,224.789 174.301,224.966 174.566 C 225.021 174.649,224.832 174.862,224.545 175.040 C 224.119 175.303,223.987 181.243,223.828 207.310 C 223.663 234.387,223.546 239.407,223.062 240.234 C 222.747 240.771,222.542 241.387,222.606 241.602 C 222.669 241.816,222.596 241.867,222.442 241.713 C 222.289 241.559,221.795 241.691,221.346 242.006 C 220.133 242.856,180.978 242.861,179.335 242.012 C 178.096 241.371,177.231 240.191,176.744 238.477 C 176.560 237.832,176.401 223.294,176.389 206.169 C 176.368 175.518,176.355 175.024,175.586 174.402 C 175.156 174.055,175.068 173.899,175.391 174.057 C 175.713 174.215,175.556 173.882,175.041 173.317 C 174.526 172.752,173.973 172.371,173.812 172.471 C 173.651 172.570,173.411 172.369,173.278 172.023 C 173.116 171.602,172.722 171.455,172.077 171.579 C 171.549 171.680,171.210 171.612,171.324 171.428 C 171.438 171.244,163.538 171.094,153.769 171.094 L 136.007 171.094 134.996 169.892 C 133.953 168.653,133.849 168.237,134.305 167.126 C 134.637 166.316,180.337 120.313,180.809 120.313 C 180.999 120.313,181.396 120.015,181.690 119.652 C 182.153 119.082,182.146 119.037,181.641 119.324 C 181.318 119.507,181.172 119.526,181.315 119.366 C 181.458 119.206,181.722 119.083,181.901 119.092 C 182.444 119.119,185.139 116.304,184.916 115.942 C 184.801 115.757,184.940 115.654,185.225 115.713 C 185.509 115.772,185.698 115.601,185.645 115.332 C 185.591 115.063,185.767 114.888,186.035 114.941 C 186.304 114.995,186.475 114.806,186.416 114.522 C 186.357 114.237,186.469 114.103,186.665 114.224 C 186.994 114.428,188.207 113.329,187.988 113.026 C 187.935 112.951,187.969 112.935,188.064 112.988 C 188.378 113.165,190.979 110.440,190.899 110.018 C 190.856 109.791,191.084 109.598,191.406 109.588 C 191.729 109.578,192.000 109.307,192.010 108.984 C 192.020 108.662,192.211 108.433,192.434 108.475 C 192.888 108.560,197.494 104.041,197.402 103.601 C 197.370 103.447,197.477 103.356,197.640 103.400 C 197.803 103.443,198.427 102.966,199.028 102.339 C 199.628 101.712,200.312 101.323,200.548 101.473 C 200.784 101.623,201.152 101.749,201.367 101.752 M179.864 104.004 L 178.320 105.664 179.980 104.120 C 181.524 102.684,181.820 102.344,181.525 102.344 C 181.461 102.344,180.714 103.091,179.864 104.004 M126.398 275.831 C 126.563 276.098,124.270 276.720,123.633 276.582 C 123.418 276.536,123.360 276.615,123.503 276.758 C 123.844 277.099,122.614 278.535,122.200 278.280 C 122.026 278.172,122.000 278.386,122.141 278.755 C 122.305 279.183,122.246 279.331,121.978 279.165 C 121.706 278.997,121.635 279.203,121.778 279.748 C 121.899 280.212,121.839 280.492,121.644 280.372 C 121.449 280.251,121.289 280.998,121.289 282.031 C 121.289 283.064,121.421 283.828,121.582 283.729 C 121.864 283.554,122.051 284.545,121.889 285.352 C 121.845 285.566,121.924 285.628,122.063 285.489 C 122.379 285.173,124.130 286.802,123.922 287.217 C 123.838 287.383,123.915 287.494,124.092 287.463 C 124.876 287.327,125.811 287.526,125.646 287.793 C 125.547 287.954,159.182 288.086,200.391 288.086 C 245.151 288.086,275.228 287.943,275.097 287.731 C 274.976 287.536,275.257 287.476,275.721 287.597 C 276.184 287.719,276.465 287.658,276.345 287.464 C 276.224 287.269,276.312 287.087,276.539 287.061 C 276.767 287.034,277.114 286.990,277.311 286.963 C 277.721 286.907,278.295 286.387,278.373 286.003 C 278.575 285.000,279.036 284.018,279.244 284.147 C 279.380 284.231,279.492 283.191,279.492 281.836 C 279.492 280.435,279.337 279.467,279.133 279.594 C 278.928 279.720,278.895 279.500,279.056 279.080 C 279.211 278.675,279.232 278.450,279.102 278.580 C 278.808 278.875,276.669 276.864,276.857 276.469 C 276.932 276.311,276.692 276.297,276.323 276.438 C 275.895 276.602,275.747 276.543,275.913 276.275 C 276.081 276.003,275.876 275.932,275.330 276.075 C 274.867 276.196,274.586 276.135,274.706 275.940 C 274.837 275.729,244.996 275.586,200.586 275.586 C 159.699 275.586,126.315 275.696,126.398 275.831 M126.504 301.914 C 126.984 302.213,126.026 302.547,123.943 302.806 C 123.684 302.838,123.550 302.991,123.646 303.146 C 123.899 303.555,122.833 304.343,122.490 304.001 C 122.331 303.841,122.236 303.887,122.279 304.102 C 122.441 304.902,122.254 305.508,121.911 305.296 C 121.717 305.176,121.656 305.456,121.778 305.920 C 121.899 306.383,121.839 306.664,121.644 306.544 C 121.449 306.423,121.289 307.082,121.289 308.008 C 121.289 308.934,121.449 309.592,121.644 309.472 C 121.839 309.351,121.899 309.632,121.778 310.096 C 121.635 310.641,121.706 310.847,121.978 310.679 C 122.246 310.513,122.305 310.661,122.141 311.089 C 121.988 311.487,122.041 311.662,122.270 311.521 C 122.482 311.389,122.656 311.458,122.656 311.674 C 122.656 311.889,123.174 312.371,123.807 312.745 C 124.440 313.119,124.879 313.552,124.783 313.707 C 124.687 313.863,124.988 313.890,125.451 313.769 C 125.915 313.648,126.195 313.708,126.075 313.903 C 125.944 314.115,155.864 314.258,200.391 314.258 C 241.385 314.258,274.844 314.126,274.744 313.965 C 274.583 313.704,275.848 313.489,276.689 313.635 C 276.866 313.666,276.900 313.511,276.764 313.291 C 276.542 312.931,277.047 312.720,277.832 312.844 C 277.993 312.870,278.097 312.759,278.063 312.598 C 277.942 312.027,278.602 310.945,278.943 311.155 C 279.133 311.273,279.183 311.096,279.055 310.762 C 278.927 310.429,278.973 310.156,279.157 310.156 C 279.342 310.156,279.492 309.206,279.492 308.045 C 279.492 306.884,279.360 306.015,279.199 306.115 C 278.932 306.280,278.734 305.344,278.870 304.561 C 278.900 304.384,278.745 304.350,278.525 304.486 C 278.305 304.622,278.125 304.545,278.125 304.314 C 278.125 303.692,275.733 302.348,274.609 302.339 C 273.837 302.333,273.755 302.253,274.219 301.956 C 274.595 301.715,248.187 301.581,200.391 301.583 C 159.463 301.584,126.214 301.733,126.504 301.914 " stroke="none" fill="#226aa4" fill-rule="evenodd"></path><path id="path1" d="M223.438 106.836 C 228.483 111.885,232.699 116.016,232.806 116.016 C 232.914 116.016,228.874 111.885,223.828 106.836 C 218.783 101.787,214.567 97.656,214.459 97.656 C 214.352 97.656,218.392 101.787,223.438 106.836 M190.453 111.308 C 185.310 116.450,180.992 120.590,180.859 120.508 C 180.726 120.425,170.696 130.279,158.571 142.405 C 146.446 154.532,136.685 164.453,136.878 164.453 C 137.072 164.453,136.916 164.801,136.532 165.225 C 136.147 165.650,135.693 165.911,135.522 165.805 C 135.350 165.699,135.085 165.814,134.933 166.061 C 134.616 166.573,134.468 169.508,134.766 169.361 C 135.007 169.242,136.314 170.588,136.133 170.768 C 136.061 170.840,144.096 170.851,153.989 170.793 L 171.975 170.688 173.628 171.656 C 175.548 172.781,176.664 174.280,176.296 175.239 C 176.136 175.658,176.193 175.815,176.449 175.656 C 177.014 175.307,177.358 177.301,177.272 180.420 L 177.200 183.008 176.953 179.883 C 176.817 178.164,176.716 190.645,176.728 207.617 L 176.750 238.477 176.957 210.938 L 177.164 183.398 177.156 211.584 C 177.152 227.086,177.280 239.688,177.441 239.588 C 177.603 239.489,177.734 239.593,177.734 239.821 C 177.734 240.607,177.802 240.822,178.202 241.304 C 178.423 241.570,178.744 241.702,178.915 241.596 C 179.320 241.346,180.511 241.803,180.309 242.131 C 180.223 242.269,189.260 242.383,200.391 242.383 C 212.609 242.383,220.541 242.240,220.406 242.023 C 220.284 241.825,220.484 241.779,220.855 241.921 C 221.223 242.063,221.456 242.049,221.371 241.890 C 221.160 241.493,222.531 240.240,222.840 240.548 C 222.976 240.685,222.961 240.465,222.806 240.061 C 222.628 239.597,222.671 239.416,222.924 239.573 C 223.172 239.725,223.269 239.414,223.180 238.758 C 223.081 238.028,223.129 237.905,223.334 238.365 C 223.499 238.733,223.589 224.759,223.536 207.310 C 223.469 185.484,223.564 175.769,223.841 176.172 C 224.144 176.615,224.184 176.505,224.003 175.724 C 223.684 174.345,226.837 170.870,228.107 171.202 C 228.547 171.317,228.809 171.252,228.688 171.057 C 228.559 170.848,235.557 170.703,245.857 170.703 C 262.897 170.703,265.234 170.551,265.234 169.445 C 265.234 169.252,265.366 169.176,265.527 169.276 C 265.688 169.376,265.794 168.727,265.762 167.834 C 265.730 166.941,265.543 166.244,265.346 166.284 C 265.150 166.325,252.344 153.681,236.889 138.187 C 221.434 122.693,209.141 110.267,209.570 110.574 C 210.290 111.089,210.309 111.079,209.819 110.454 C 209.526 110.080,209.162 109.851,209.010 109.945 C 208.859 110.039,206.904 108.279,204.667 106.034 C 202.430 103.790,200.421 101.954,200.202 101.956 C 199.984 101.957,195.596 106.165,190.453 111.308 M237.305 138.281 C 252.128 153.105,264.344 165.234,264.451 165.234 C 264.558 165.234,252.518 153.105,237.695 138.281 C 222.872 123.457,210.656 111.328,210.549 111.328 C 210.442 111.328,222.482 123.457,237.305 138.281 M180.859 120.802 C 180.859 120.857,170.972 130.744,158.887 142.775 L 136.914 164.648 158.788 142.676 C 179.120 122.251,180.859 120.528,180.859 120.802 " stroke="none" fill="#66a3dc" fill-rule="evenodd"></path><path id="path2" d="M167.369 133.986 C 131.792 169.538,133.177 167.978,135.310 170.111 L 136.293 171.094 154.181 171.096 L 172.070 171.098 173.556 171.997 C 174.374 172.492,175.383 173.414,175.800 174.046 C 176.216 174.678,176.559 175.057,176.560 174.889 C 176.566 174.121,175.135 172.539,173.641 171.664 L 172.002 170.703 154.165 170.703 C 134.334 170.703,134.766 170.762,134.766 168.064 C 134.766 167.001,199.150 101.953,200.201 101.953 C 201.169 101.953,265.625 166.999,265.619 167.970 C 265.602 170.683,265.459 170.703,246.022 170.704 C 226.613 170.704,227.186 170.627,224.832 173.571 L 223.633 175.072 223.438 206.970 C 223.225 241.695,223.279 240.908,221.069 241.610 C 220.620 241.752,220.340 241.954,220.445 242.060 C 220.840 242.454,222.282 241.338,222.945 240.125 C 223.581 238.962,223.648 236.464,223.828 207.001 L 224.023 175.134 225.149 173.658 C 227.124 171.069,226.921 171.094,246.490 171.094 L 264.098 171.094 265.057 170.135 C 267.221 167.971,268.814 169.769,233.184 134.170 C 215.127 116.128,200.311 101.332,200.261 101.289 C 200.210 101.245,185.409 115.959,167.369 133.986 M176.848 178.711 C 176.941 180.645,177.077 182.402,177.150 182.617 C 177.426 183.433,177.252 177.102,176.972 176.172 C 176.811 175.635,176.755 176.777,176.848 178.711 M177.138 211.133 C 177.138 226.602,177.187 232.873,177.246 225.069 C 177.305 217.265,177.305 204.609,177.246 196.944 C 177.187 189.279,177.138 195.664,177.138 211.133 M177.344 239.684 C 177.344 239.906,177.883 240.604,178.541 241.236 L 179.738 242.383 199.928 242.395 L 220.117 242.407 200.195 242.200 C 179.185 241.981,179.240 241.986,177.950 240.144 C 177.616 239.669,177.344 239.461,177.344 239.684 " stroke="none" fill="#79b3ea" fill-rule="evenodd"></path><path id="path3" d="M196.484 87.891 C 196.484 88.105,196.122 88.281,195.680 88.281 C 195.238 88.281,194.984 88.457,195.117 88.672 C 195.255 88.895,194.909 89.063,194.307 89.063 C 193.729 89.063,192.971 89.382,192.624 89.773 C 192.276 90.164,191.685 90.598,191.309 90.738 C 190.933 90.877,190.625 91.260,190.625 91.589 C 190.625 91.918,190.345 92.188,190.002 92.188 C 189.660 92.188,189.288 92.539,189.176 92.969 C 189.063 93.398,188.814 93.750,188.622 93.750 C 188.200 93.750,176.953 105.134,176.953 105.560 C 176.953 105.725,176.806 105.859,176.626 105.859 C 176.446 105.859,165.592 116.494,152.505 129.492 C 139.419 142.490,128.592 153.125,128.445 153.125 C 128.298 153.125,128.066 153.477,127.930 153.906 C 127.793 154.336,127.442 154.688,127.148 154.688 C 126.855 154.688,126.504 155.039,126.367 155.469 C 126.231 155.898,125.867 156.250,125.560 156.250 C 125.252 156.250,125.000 156.507,125.000 156.822 C 125.000 157.137,124.648 157.583,124.219 157.813 C 123.789 158.042,123.438 158.488,123.438 158.803 C 123.438 159.118,123.262 159.375,123.047 159.375 C 122.832 159.375,122.656 159.639,122.656 159.961 C 122.656 160.283,122.480 160.547,122.266 160.547 C 122.051 160.547,121.875 161.162,121.875 161.914 C 121.875 162.666,121.699 163.281,121.484 163.281 C 121.270 163.281,121.094 163.721,121.094 164.258 C 121.094 164.795,120.918 165.234,120.703 165.234 C 120.473 165.234,120.313 166.602,120.313 168.555 C 120.313 170.508,120.473 171.875,120.703 171.875 C 120.918 171.875,121.094 172.227,121.094 172.656 C 121.094 173.086,121.270 173.438,121.484 173.438 C 121.699 173.438,121.875 174.020,121.875 174.731 C 121.875 175.485,122.201 176.375,122.656 176.863 C 123.086 177.324,123.437 177.885,123.438 178.109 C 123.438 178.332,123.613 178.516,123.828 178.516 C 124.043 178.516,124.219 178.700,124.219 178.925 C 124.219 179.459,126.226 181.222,126.852 181.238 C 127.119 181.244,127.557 181.602,127.825 182.031 C 128.093 182.461,128.727 182.813,129.233 182.813 C 129.739 182.813,130.707 183.208,131.385 183.691 C 132.613 184.567,132.675 184.570,147.949 184.570 L 163.281 184.570 163.281 213.746 C 163.281 232.776,163.417 243.007,163.672 243.164 C 163.887 243.297,164.063 243.738,164.063 244.144 C 164.063 244.551,164.370 245.055,164.746 245.266 C 165.122 245.476,165.368 245.756,165.292 245.888 C 165.077 246.261,166.069 248.438,166.454 248.438 C 166.642 248.438,166.797 248.718,166.797 249.060 C 166.797 249.402,167.148 249.774,167.578 249.887 C 168.008 249.999,168.359 250.340,168.359 250.644 C 168.359 250.948,168.667 251.313,169.043 251.456 C 169.419 251.599,170.015 252.081,170.368 252.527 C 170.721 252.972,171.644 253.586,172.419 253.890 C 173.194 254.194,173.828 254.586,173.828 254.760 C 173.828 254.935,174.355 255.078,175.000 255.078 C 175.645 255.078,176.172 255.254,176.172 255.469 C 176.172 255.725,184.440 255.859,200.195 255.859 C 215.951 255.859,224.219 255.725,224.219 255.469 C 224.219 255.254,224.746 255.078,225.391 255.078 C 226.035 255.078,226.563 254.945,226.563 254.783 C 226.563 254.620,227.134 254.245,227.832 253.948 C 228.530 253.651,229.453 253.079,229.883 252.678 C 230.313 252.276,231.235 251.439,231.934 250.817 C 232.632 250.195,233.203 249.406,233.203 249.062 C 233.203 248.719,233.440 248.438,233.729 248.438 C 234.457 248.438,236.719 243.999,236.719 242.572 C 236.719 241.931,236.895 241.406,237.109 241.406 C 237.366 241.406,237.500 231.673,237.500 212.988 L 237.501 184.570 252.442 184.570 C 267.235 184.570,267.398 184.562,268.870 183.691 C 269.688 183.208,270.697 182.813,271.113 182.813 C 271.528 182.813,272.088 182.461,272.356 182.031 C 272.625 181.602,273.071 181.250,273.349 181.250 C 273.949 181.250,276.563 178.719,276.563 178.138 C 276.563 177.916,276.738 177.734,276.953 177.734 C 277.168 177.734,277.344 177.471,277.344 177.148 C 277.344 176.826,277.520 176.563,277.734 176.563 C 277.949 176.563,278.125 176.123,278.125 175.586 C 278.125 175.049,278.301 174.609,278.516 174.609 C 278.730 174.609,278.906 174.346,278.906 174.023 C 278.906 173.701,279.082 173.438,279.297 173.438 C 280.147 173.438,279.779 163.129,278.906 162.500 C 278.440 162.164,278.125 161.489,278.125 160.826 C 278.125 160.013,277.621 159.223,276.249 157.885 C 275.218 156.878,274.256 155.747,274.113 155.371 C 273.970 154.995,273.583 154.688,273.254 154.688 C 272.925 154.688,272.656 154.407,272.656 154.065 C 272.656 153.723,272.311 153.352,271.888 153.242 C 271.465 153.131,271.014 152.708,270.885 152.302 C 270.756 151.895,270.382 151.563,270.054 151.563 C 269.726 151.563,269.366 151.211,269.254 150.781 C 269.141 150.352,268.790 150.000,268.473 150.000 C 268.155 150.000,267.808 149.665,267.701 149.255 C 267.594 148.845,267.171 148.422,266.761 148.315 C 266.351 148.208,266.016 147.852,266.016 147.524 C 266.016 147.196,265.664 146.816,265.234 146.680 C 264.805 146.543,264.453 146.192,264.453 145.898 C 264.453 145.605,264.102 145.254,263.672 145.117 C 263.242 144.981,262.891 144.617,262.891 144.310 C 262.891 144.002,262.740 143.750,262.555 143.750 C 262.371 143.750,260.525 142.055,258.454 139.984 C 256.382 137.913,254.688 136.067,254.688 135.882 C 254.688 135.698,254.436 135.547,254.128 135.547 C 253.820 135.547,253.463 135.214,253.334 134.808 C 253.205 134.401,252.753 133.978,252.331 133.868 C 251.908 133.757,251.563 133.407,251.563 133.090 C 251.563 132.773,251.211 132.421,250.781 132.309 C 250.352 132.196,250.000 131.845,250.000 131.527 C 250.000 131.210,249.648 130.859,249.219 130.746 C 248.789 130.634,248.438 130.274,248.438 129.946 C 248.438 129.618,248.105 129.244,247.698 129.115 C 247.292 128.986,246.869 128.535,246.758 128.112 C 246.648 127.689,246.277 127.344,245.935 127.344 C 245.593 127.344,245.313 127.075,245.313 126.746 C 245.313 126.417,245.007 126.030,244.634 125.887 C 243.813 125.572,240.030 121.751,239.708 120.912 C 239.581 120.582,239.208 120.313,238.879 120.313 C 238.550 120.313,238.281 120.044,238.281 119.717 C 238.281 119.389,237.842 118.954,237.305 118.750 C 236.768 118.546,236.328 118.111,236.328 117.783 C 236.328 117.456,236.048 117.188,235.706 117.188 C 235.363 117.188,234.991 116.836,234.879 116.406 C 234.766 115.977,234.415 115.625,234.098 115.625 C 233.780 115.625,233.429 115.273,233.316 114.844 C 233.204 114.414,232.977 114.063,232.813 114.063 C 232.365 114.063,218.750 100.445,218.750 99.996 C 218.750 99.784,218.470 99.609,218.127 99.609 C 217.785 99.609,217.413 99.258,217.301 98.828 C 217.188 98.398,216.837 98.047,216.519 98.047 C 216.202 98.047,215.855 97.712,215.748 97.302 C 215.640 96.892,215.217 96.469,214.808 96.362 C 214.398 96.255,214.063 95.887,214.063 95.544 C 214.063 95.202,213.904 94.922,213.710 94.922 C 213.516 94.922,212.022 93.604,210.390 91.992 C 207.998 89.632,207.189 89.063,206.227 89.063 C 205.530 89.063,205.133 88.900,205.273 88.672 C 205.406 88.457,205.153 88.281,204.711 88.281 C 204.268 88.281,203.906 88.105,203.906 87.891 C 203.906 87.658,202.409 87.500,200.195 87.500 C 197.982 87.500,196.484 87.658,196.484 87.891 M204.966 89.508 C 208.258 90.725,275.854 158.084,277.626 161.914 C 280.885 168.955,277.546 178.338,270.567 181.756 C 267.102 183.452,265.778 183.574,250.684 183.584 L 236.328 183.594 236.328 211.843 C 236.328 245.444,236.403 244.928,230.741 250.283 C 225.718 255.034,225.436 255.078,200.402 255.078 C 174.726 255.078,173.944 254.941,168.965 249.563 C 163.992 244.192,164.073 244.814,164.067 211.642 L 164.063 183.635 148.526 183.517 L 132.989 183.398 130.390 182.118 C 122.854 178.407,119.475 169.594,122.793 162.305 C 124.333 158.919,191.402 91.680,195.082 89.831 C 198.018 88.357,201.540 88.241,204.966 89.508 M123.828 275.000 C 123.828 275.215,123.640 275.391,123.410 275.391 C 122.911 275.391,121.875 276.368,121.875 276.839 C 121.875 277.022,121.523 277.425,121.094 277.734 C 120.405 278.231,120.313 278.746,120.313 282.091 C 120.313 285.542,120.383 285.907,121.094 286.133 C 121.523 286.269,121.875 286.649,121.875 286.977 C 121.875 287.305,122.227 287.665,122.656 287.777 C 123.086 287.890,123.438 288.137,123.438 288.327 C 123.438 288.517,123.701 288.672,124.023 288.672 C 124.346 288.672,124.609 288.848,124.609 289.063 C 124.609 289.322,150.130 289.453,200.391 289.453 C 250.651 289.453,276.172 289.322,276.172 289.063 C 276.172 288.848,276.479 288.666,276.855 288.660 C 277.688 288.644,279.684 286.951,279.696 286.249 C 279.701 285.970,280.049 285.303,280.469 284.766 C 281.629 283.283,281.257 278.532,279.980 278.519 C 279.819 278.517,279.688 278.196,279.688 277.805 C 279.688 276.976,278.003 275.391,277.122 275.391 C 276.789 275.391,276.625 275.215,276.758 275.000 C 276.918 274.740,251.371 274.609,200.414 274.609 C 149.617 274.609,123.828 274.741,123.828 275.000 M276.404 276.134 C 280.789 278.125,281.130 284.650,276.993 287.399 L 275.666 288.281 200.679 288.281 L 125.692 288.281 124.272 287.474 C 119.759 284.907,120.066 277.995,124.785 275.940 C 126.965 274.991,274.302 275.179,276.404 276.134 M125.382 300.953 C 124.420 301.155,123.401 301.550,123.117 301.832 C 122.833 302.113,122.437 302.344,122.238 302.344 C 122.038 302.344,121.875 302.569,121.875 302.843 C 121.875 303.118,121.523 303.597,121.094 303.906 C 120.411 304.398,120.313 304.917,120.313 308.008 C 120.313 311.098,120.411 311.618,121.094 312.109 C 121.523 312.419,121.875 312.985,121.875 313.367 C 121.875 313.750,122.104 314.063,122.383 314.063 C 123.102 314.063,124.993 314.981,124.997 315.332 C 125.005 316.139,276.025 315.653,276.758 314.844 C 277.147 314.414,277.714 314.063,278.018 314.063 C 278.751 314.063,279.688 313.098,279.688 312.344 C 279.688 312.013,280.039 311.117,280.469 310.352 C 281.302 308.869,281.504 306.844,280.859 306.445 C 280.645 306.313,280.469 305.863,280.469 305.446 C 280.469 305.029,280.293 304.688,280.078 304.688 C 279.863 304.688,279.688 304.248,279.688 303.711 C 279.688 303.015,279.476 302.734,278.952 302.734 C 278.547 302.734,278.131 302.409,278.027 302.010 C 277.885 301.469,277.307 301.214,275.735 301.001 C 272.532 300.567,127.444 300.520,125.382 300.953 M275.891 302.100 C 280.859 304.226,281.182 311.556,276.407 313.822 C 275.178 314.405,268.727 314.451,200.061 314.358 L 125.057 314.258 123.954 313.441 C 119.727 310.308,120.158 304.601,124.806 302.178 C 126.472 301.309,273.865 301.233,275.891 302.100 " stroke="none" fill="#91bdea" fill-rule="evenodd"></path><path id="path4" d="M200.838 89.047 C 206.108 89.724,204.217 88.039,241.516 125.308 C 270.927 154.695,275.971 159.899,276.966 161.879 C 277.603 163.148,278.123 163.939,278.121 163.637 C 278.108 161.654,274.355 157.676,241.848 125.195 C 204.488 87.865,205.870 89.092,200.918 88.846 L 198.242 88.713 200.838 89.047 M195.011 89.911 C 193.838 90.479,183.071 100.956,158.800 125.145 C 126.261 157.574,122.573 161.455,122.674 163.168 C 122.684 163.338,123.133 162.598,123.672 161.523 C 124.427 160.017,130.382 153.869,149.728 134.622 C 195.353 89.231,194.088 90.450,196.289 89.741 C 197.363 89.394,197.891 89.109,197.461 89.106 C 197.031 89.104,195.929 89.466,195.011 89.911 M211.133 111.719 C 212.191 112.793,213.144 113.672,213.252 113.672 C 213.359 113.672,212.582 112.793,211.523 111.719 C 210.465 110.645,209.512 109.766,209.404 109.766 C 209.297 109.766,210.075 110.645,211.133 111.719 M215.218 115.723 C 216.837 117.447,217.188 117.757,217.188 117.464 C 217.188 117.401,216.353 116.566,215.332 115.609 L 213.477 113.867 215.218 115.723 M177.514 123.145 L 176.367 124.414 177.637 123.267 C 178.820 122.197,179.086 121.875,178.784 121.875 C 178.717 121.875,178.146 122.446,177.514 123.145 M172.436 128.223 L 171.289 129.492 172.559 128.345 C 173.257 127.714,173.828 127.143,173.828 127.075 C 173.828 126.774,173.506 127.039,172.436 128.223 M230.273 130.859 C 231.113 131.719,231.887 132.422,231.994 132.422 C 232.102 132.422,231.503 131.719,230.664 130.859 C 229.825 130.000,229.050 129.297,228.943 129.297 C 228.836 129.297,229.434 130.000,230.273 130.859 M122.125 164.535 C 121.993 165.027,121.903 165.869,121.923 166.406 C 121.945 166.982,122.100 166.671,122.301 165.650 C 122.659 163.820,122.533 163.015,122.125 164.535 M278.627 168.164 C 278.630 169.238,278.706 169.631,278.796 169.038 C 278.886 168.444,278.883 167.565,278.791 167.084 C 278.698 166.604,278.624 167.090,278.627 168.164 M121.522 168.242 C 121.289 173.605,127.481 182.446,131.445 182.411 C 131.660 182.409,130.869 181.875,129.688 181.224 C 125.511 178.923,123.159 175.524,122.133 170.306 C 121.817 168.698,121.542 167.770,121.522 168.242 M277.611 173.094 C 277.077 175.220,274.225 178.837,271.811 180.449 C 270.508 181.319,269.596 182.031,269.785 182.031 C 272.016 182.031,278.638 174.392,278.019 172.532 C 277.935 172.282,277.752 172.534,277.611 173.094 M132.617 182.794 C 133.367 183.134,135.459 183.356,135.124 183.060 C 135.034 182.981,134.258 182.809,133.398 182.678 C 132.309 182.512,132.073 182.548,132.617 182.794 M149.704 183.493 L 164.057 183.603 164.161 211.235 L 164.266 238.867 164.262 211.133 L 164.258 183.398 149.805 183.391 L 135.352 183.384 149.704 183.493 M236.117 183.691 C 236.015 183.960,235.977 196.660,236.034 211.914 L 236.138 239.648 236.233 211.626 L 236.328 183.603 250.488 183.496 L 264.648 183.388 250.476 183.296 C 239.429 183.224,236.262 183.311,236.117 183.691 M176.263 236.328 C 176.263 237.080,176.343 237.388,176.441 237.012 C 176.539 236.636,176.539 236.021,176.441 235.645 C 176.343 235.269,176.263 235.576,176.263 236.328 M234.840 243.265 C 233.297 248.415,227.984 253.053,222.197 254.302 L 220.508 254.666 222.167 254.519 C 227.446 254.050,236.600 245.544,235.471 242.156 C 235.385 241.896,235.101 242.395,234.840 243.265 M165.630 244.336 C 165.624 245.459,169.043 250.000,170.828 251.238 C 171.650 251.808,171.372 251.403,170.009 250.042 C 168.876 248.910,167.427 247.075,166.790 245.964 C 166.153 244.854,165.631 244.121,165.630 244.336 M172.828 252.540 C 173.956 253.410,177.612 254.694,178.823 254.645 C 179.583 254.614,179.405 254.508,178.194 254.270 C 177.265 254.087,175.507 253.491,174.288 252.946 C 173.068 252.401,172.411 252.218,172.828 252.540 M190.164 254.980 C 195.819 255.041,204.959 255.041,210.477 254.980 C 215.994 254.919,211.367 254.869,200.195 254.869 C 189.023 254.869,184.509 254.919,190.164 254.980 M125.700 275.777 C 121.977 276.899,120.078 281.139,121.735 284.631 C 122.411 286.057,124.502 287.897,125.427 287.882 C 125.729 287.877,125.400 287.589,124.695 287.241 C 120.739 285.291,120.509 279.047,124.308 276.749 C 126.305 275.542,273.285 275.331,275.998 276.532 C 280.313 278.441,280.533 284.830,276.367 287.243 C 275.786 287.579,256.437 287.746,200.781 287.893 L 125.977 288.091 200.306 288.186 C 262.708 288.266,274.836 288.195,275.891 287.743 C 280.904 285.599,281.079 278.742,276.184 276.270 L 274.444 275.391 200.601 275.424 C 159.987 275.443,126.282 275.601,125.700 275.777 M125.968 301.925 C 120.371 303.268,119.461 310.985,124.594 313.574 L 126.337 314.453 200.034 314.453 C 240.567 314.453,274.300 314.339,274.995 314.200 C 276.361 313.927,279.298 311.406,279.295 310.510 C 279.295 310.208,278.968 310.496,278.569 311.150 C 276.744 314.142,284.649 313.855,201.010 313.969 L 126.435 314.070 124.697 313.229 C 120.111 311.009,121.059 302.473,125.909 302.316 C 126.376 302.301,127.109 302.138,127.539 301.953 C 128.494 301.543,127.628 301.527,125.968 301.925 M274.414 302.216 C 277.503 302.895,278.877 304.453,279.302 307.756 L 279.585 309.961 279.636 308.197 C 279.726 305.097,277.144 301.887,274.649 301.998 C 273.864 302.033,273.810 302.083,274.414 302.216 " stroke="none" fill="#04398a" fill-rule="evenodd"></path></g></svg>